<?xml version="1.0" encoding="UTF-8"?>
<svg role="img" width="54" height="54" fill="none" version="1.1" viewBox="0 0 54 54" xmlns="http://www.w3.org/2000/svg">
<title>Jon Rutter</title>
 <path d="m23.495 18.738h-4.1411v25.299h4.1411v-25.299z" fill="url(#logo-header0_linear)"/>
 <path d="m36.432 25.875c1.9678 0 3.5629-1.5928 3.5629-3.5578 0-1.9649-1.5951-3.5577-3.5629-3.5577-1.9677 0-3.5629 1.5928-3.5629 3.5577 0 1.965 1.5952 3.5578 3.5629 3.5578z" fill="url(#logo-header1_linear)"/>
 <path d="m32.865 18.738h-4.1411v16.602h4.1411v-16.602z" fill="url(#logo-header2_linear)"/>
 <path d="m21.445 14.069c1.1358 0 2.0566-0.9193 2.0566-2.0534 0-1.134-0.9208-2.0533-2.0566-2.0533-1.1357 0-2.0564 0.9193-2.0564 2.0533 0 1.1341 0.9207 2.0534 2.0564 2.0534z" fill="url(#logo-header3_linear)"/>
 <path d="m27 51.3c13.42 0 24.3-10.88 24.3-24.3s-10.88-24.3-24.3-24.3c-13.42 0-24.3 10.879-24.3 24.3s10.88 24.3 24.3 24.3z" stroke="url(#logo-header4_linear)" stroke-width="4.14"/>
 <defs>
  <linearGradient id="logo-header0_linear" x1="51.527" x2="2.0962" y1="26.967" y2="26.948" gradientUnits="userSpaceOnUse">
   <stop stop-color="#06BCEF" offset="0"/>
   <stop stop-color="#60D9FB" offset=".48714"/>
   <stop stop-color="#92E5FC" offset="1"/>
  </linearGradient>
  <linearGradient id="logo-header1_linear" x1="51.791" x2="2.2084" y1="27.227" y2="26.827" gradientUnits="userSpaceOnUse">
   <stop stop-color="#06BCEF" offset="0"/>
   <stop stop-color="#60D9FB" offset=".48714"/>
   <stop stop-color="#92E5FC" offset="1"/>
  </linearGradient>
  <linearGradient id="logo-header2_linear" x1="51.52" x2="1.9369" y1="26.722" y2="26.517" gradientUnits="userSpaceOnUse">
   <stop stop-color="#06BCEF" offset="0"/>
   <stop stop-color="#60D9FB" offset=".48714"/>
   <stop stop-color="#92E5FC" offset="1"/>
  </linearGradient>
  <linearGradient id="logo-header3_linear" x1="51.906" x2="2.4694" y1="28.258" y2="28.026" gradientUnits="userSpaceOnUse">
   <stop stop-color="#06BCEF" offset="0"/>
   <stop stop-color="#60D9FB" offset=".48714"/>
   <stop stop-color="#92E5FC" offset="1"/>
  </linearGradient>
  <linearGradient id="logo-header4_linear" x1="51.605" x2="2.3226" y1="27.205" y2="27.242" gradientUnits="userSpaceOnUse">
   <stop stop-color="#06BCEF" offset="0"/>
   <stop stop-color="#60D9FB" offset=".48714"/>
   <stop stop-color="#92E5FC" offset="1"/>
  </linearGradient>
 </defs>
</svg>
